<svg xmlns="http://www.w3.org/2000/svg" viewBox="0 0 1600 900" role="img" aria-labelledby="title desc">
  <title id="title">Commercial Kitchen Steam</title>
  <desc id="desc">Kitchen equipment with steam and no people.</desc>
  <defs>
    <linearGradient id="bg" x1="0%" y1="0%" x2="100%" y2="100%">
      <stop offset="0%" stop-color="#102a2a"/>
      <stop offset="100%" stop-color="#1f3d3a"/>
    </linearGradient>
    <linearGradient id="steel" x1="0%" y1="0%" x2="0%" y2="100%">
      <stop offset="0%" stop-color="#d7e3df"/>
      <stop offset="100%" stop-color="#9cb3ac"/>
    </linearGradient>
    <linearGradient id="steam" x1="0%" y1="0%" x2="0%" y2="100%">
      <stop offset="0%" stop-color="#f7fffd" stop-opacity="0.9"/>
      <stop offset="100%" stop-color="#d5ebe5" stop-opacity="0.2"/>
    </linearGradient>
  </defs>
  <rect width="1600" height="900" fill="url(#bg)"/>
  <rect x="80" y="560" width="1440" height="230" rx="24" fill="#173633"/>
  <rect x="160" y="330" width="540" height="250" rx="18" fill="url(#steel)"/>
  <rect x="900" y="310" width="540" height="270" rx="18" fill="url(#steel)"/>
  <rect x="980" y="360" width="380" height="150" rx="14" fill="#243d39"/>
  <rect x="230" y="385" width="390" height="95" rx="12" fill="#294542"/>
  <ellipse cx="420" cy="330" rx="170" ry="50" fill="#2d4945"/>
  <rect x="250" y="320" width="340" height="90" rx="40" fill="#3a5e57"/>
  <path d="M350 240 C330 195 360 180 380 150" stroke="url(#steam)" stroke-width="16" stroke-linecap="round" fill="none"/>
  <path d="M420 240 C400 195 430 180 450 145" stroke="url(#steam)" stroke-width="14" stroke-linecap="round" fill="none"/>
  <path d="M490 240 C470 195 500 180 520 150" stroke="url(#steam)" stroke-width="16" stroke-linecap="round" fill="none"/>
  <rect x="1280" y="150" width="90" height="170" rx="12" fill="#4f6a63"/>
  <rect x="1310" y="120" width="30" height="70" rx="8" fill="#6f8a83"/>
</svg>
