<svg xmlns="http://www.w3.org/2000/svg" viewBox="0 0 1600 900" role="img" aria-labelledby="title desc">
  <title id="title">Laundry Shop Front</title>
  <desc id="desc">Clean laundry storefront style image with no people.</desc>
  <defs>
    <linearGradient id="bg" x1="0%" y1="0%" x2="100%" y2="100%">
      <stop offset="0%" stop-color="#2b1b59"/>
      <stop offset="100%" stop-color="#57339f"/>
    </linearGradient>
    <linearGradient id="glass" x1="0%" y1="0%" x2="0%" y2="100%">
      <stop offset="0%" stop-color="#eef4ff"/>
      <stop offset="100%" stop-color="#cddcf7"/>
    </linearGradient>
  </defs>
  <rect width="1600" height="900" fill="url(#bg)"/>
  <rect x="130" y="180" width="1340" height="600" rx="22" fill="#2f2a45"/>
  <rect x="190" y="250" width="1220" height="80" rx="14" fill="#6b4dd0"/>
  <text x="800" y="303" text-anchor="middle" fill="#ffffff" font-size="62" font-family="Tajawal, Arial, sans-serif" font-weight="700">مغسلة دراي كلين</text>
  <rect x="210" y="360" width="1180" height="360" rx="16" fill="#f6f8ff"/>
  <rect x="280" y="420" width="260" height="240" rx="20" fill="url(#glass)"/>
  <rect x="670" y="420" width="260" height="240" rx="20" fill="url(#glass)"/>
  <rect x="1060" y="420" width="260" height="240" rx="20" fill="url(#glass)"/>
  <circle cx="410" cy="540" r="78" fill="#ffffff" stroke="#5b44b6" stroke-width="18"/>
  <circle cx="800" cy="540" r="78" fill="#ffffff" stroke="#5b44b6" stroke-width="18"/>
  <circle cx="1190" cy="540" r="78" fill="#ffffff" stroke="#5b44b6" stroke-width="18"/>
  <path d="M390 540 C405 510 435 510 448 538 C435 566 405 566 390 540Z" fill="#7c63e8"/>
  <path d="M780 540 C795 510 825 510 838 538 C825 566 795 566 780 540Z" fill="#7c63e8"/>
  <path d="M1170 540 C1185 510 1215 510 1228 538 C1215 566 1185 566 1170 540Z" fill="#7c63e8"/>
  <rect x="210" y="360" width="1180" height="56" fill="#e3e9fb"/>
</svg>
